<svg width="16" height="11" viewBox="0 0 16 11" fill="none" xmlns="http://www.w3.org/2000/svg">
<path fill-rule="evenodd" clip-rule="evenodd" d="M0 1.25C0 1.05109 0.0790176 0.860322 0.21967 0.71967C0.360322 0.579018 0.551088 0.5 0.75 0.5H15.25C15.4489 0.5 15.6397 0.579018 15.7803 0.71967C15.921 0.860322 16 1.05109 16 1.25C16 1.44891 15.921 1.63968 15.7803 1.78033C15.6397 1.92098 15.4489 2 15.25 2H0.75C0.551088 2 0.360322 1.92098 0.21967 1.78033C0.0790176 1.63968 0 1.44891 0 1.25ZM0 5.5C0 5.30109 0.0790176 5.11032 0.21967 4.96967C0.360322 4.82902 0.551088 4.75 0.75 4.75H15.25C15.4489 4.75 15.6397 4.82902 15.7803 4.96967C15.921 5.11032 16 5.30109 16 5.5C16 5.69891 15.921 5.88968 15.7803 6.03033C15.6397 6.17098 15.4489 6.25 15.25 6.25H0.75C0.551088 6.25 0.360322 6.17098 0.21967 6.03033C0.0790176 5.88968 0 5.69891 0 5.5ZM0.75 9C0.551088 9 0.360322 9.07902 0.21967 9.21967C0.0790176 9.36032 0 9.55109 0 9.75C0 9.94891 0.0790176 10.1397 0.21967 10.2803C0.360322 10.421 0.551088 10.5 0.75 10.5H15.25C15.4489 10.5 15.6397 10.421 15.7803 10.2803C15.921 10.1397 16 9.94891 16 9.75C16 9.55109 15.921 9.36032 15.7803 9.21967C15.6397 9.07902 15.4489 9 15.25 9H0.75Z" fill="black"/>
</svg>
